<?xml version="1.0" encoding="UTF-8"?>
<svg id="Layer_2" data-name="Layer 2" xmlns="http://www.w3.org/2000/svg" viewBox="0 0 331.87 511">
  <defs>
    <style>
      .cls-1 {
        fill: #fff;
        stroke-width: 0px;
      }
    </style>
  </defs>
  <g id="Layer_1-2" data-name="Layer 1">
    <g>
      <path class="cls-1" d="M181.95,0c10.72,3.93,22.25,6.45,32,12.06,32.86,18.91,49.42,48.25,49.71,86.01.46,58.14.3,116.29.07,174.44-.19,47.66-30.03,85.24-76.27,96.85-48.7,12.23-102.85-19.64-115.27-68.31-2.45-9.58-3.86-19.69-3.92-29.57-.36-57.48-.55-114.96-.05-172.44.36-42.21,19.87-73.08,58.11-91.39C133.73,4.11,142.05,2.5,149.95,0,160.62,0,171.29,0,181.95,0ZM233.08,185.4c0-29.48,0-58.97,0-88.45,0-1.17-.06-2.33-.1-3.5-1.2-39.16-39.07-69.9-77.64-63.02-33.64,5.99-56.4,32.83-56.5,67.32-.17,58.47-.07,116.94,0,175.41,0,4.47.42,8.99,1.14,13.4,5.6,34.52,41.48,60,75.81,53.95,34.46-6.08,57.11-32.71,57.27-67.65.14-29.15.03-58.3.02-87.45Z"/>
      <path class="cls-1" d="M150.51,480.44v-40.71c-7.77-1.48-15.51-2.5-23-4.46-61.1-16.05-101.16-54.51-120.68-114.39C2,306.06.2,290.65,0,275.09c-.12-9,5.95-15.72,14.3-16.13,8.6-.43,14.82,5.17,16.07,14.31,1.72,12.49,2.28,25.31,5.57,37.38,10.14,37.25,32.79,65.5,67.02,83,46.75,23.89,93.43,21.64,137.54-6.9,33.75-21.83,53.31-53.75,59.33-93.64,1.07-7.06,1.03-14.28,1.95-21.36.99-7.62,7.29-12.81,14.84-12.82,8.64,0,15.38,6.71,15.25,15.72-.4,27.59-6.6,53.77-19.97,78.03-22,39.95-54.92,66.74-98.42,80.22-10.27,3.18-21.04,4.73-32.02,7.12v40.15c1.93.09,3.7.25,5.48.25,15.83.02,31.66-.04,47.48.06,2.96.02,6.07.21,8.85,1.13,6.63,2.2,10.55,9.17,9.65,16.27-.85,6.67-6.4,12.12-13.3,12.97-1.48.18-2.99.14-4.49.14-46.15,0-92.3,0-138.46,0-1.17,0-2.34.03-3.5-.06-8.06-.61-14.06-6.75-14.3-14.6-.25-8.26,5.24-15.24,13.63-15.51,16.64-.54,33.31-.31,49.97-.39,2.48-.01,4.96,0,8.03,0Z"/>
    </g>
  </g>
</svg>