<?xml version="1.0" encoding="UTF-8"?>
<svg id="Layer_2" data-name="Layer 2" xmlns="http://www.w3.org/2000/svg" viewBox="0 0 383.24 333.59">
  <defs>
    <style>
      .cls-1 {
        fill: #fff;
        stroke-width: 0px;
      }
    </style>
  </defs>
  <g id="Layer_1-2" data-name="Layer 1">
    <path class="cls-1" d="M383.24,13.82c-3.75,12-7.57,23.98-11.24,36.01-26.69,87.57-53.35,175.15-80.02,262.73-3.08,10.11-11.11,12.78-19.61,6.46-32.45-24.1-64.87-48.24-97.31-72.36-.99-.74-2.01-1.44-3.32-2.37-.71,1.35-1.35,2.51-1.94,3.69-13.01,25.85-26.02,51.7-38.99,77.57-1.99,3.98-4.51,7.18-9.23,7.9-6.68,1.01-12.47-3.55-13-10.29-.1-1.24-.05-2.5-.05-3.75,0-38.87-.04-77.73.07-116.6,0-2.97-.81-4.28-3.65-5.37-31.98-12.24-63.9-24.65-95.83-37.03C2.85,157.99-.07,154.33,0,149.04c.07-5.14,2.99-8.7,9.07-11.03C128.17,92.45,247.26,46.88,366.36,1.31c7.87-3.01,12.7-.92,16.88,7.26v5.25ZM184.56,225.7c30.16,22.42,59.92,44.54,90.04,66.93,24.19-79.46,48.17-158.28,72.16-237.09-.29-.13-.57-.26-.86-.39-53.68,56.74-107.37,113.49-161.35,170.54ZM42.82,149.17c1.68.74,2.78,1.29,3.92,1.73,22.53,8.72,45.08,17.39,67.58,26.2,2.72,1.07,4.65.96,7.12-.81,55.6-39.79,111.26-79.48,166.91-119.19,1.03-.73,2.01-1.53,3.02-2.3-.12-.19-.24-.38-.35-.57-82.54,31.57-165.08,63.14-248.2,94.93ZM281.21,90.82c-.11-.16-.23-.32-.34-.48-.9.54-1.84,1.02-2.69,1.63-48.32,34.47-96.64,68.94-144.88,103.53-1.22.87-2.21,2.97-2.22,4.51-.14,23.61-.1,47.22-.09,70.83,0,.88.17,1.76.34,3.47.98-1.91,1.55-3,2.11-4.1,7.86-15.59,15.7-31.19,23.62-46.75.89-1.75,2.04-3.45,3.38-4.88,30.32-32.13,60.69-64.23,91.05-96.33,9.91-10.48,19.82-20.96,29.72-31.43Z"/>
  </g>
</svg>